<svg width="72" height="72" viewBox="0 0 72 72" fill="none" xmlns="http://www.w3.org/2000/svg">
<path d="M46 12H22C18.6863 12 16 14.6863 16 18V55C16 58.3137 18.6863 61 22 61H46C49.3137 61 52 58.3137 52 55V18C52 14.6863 49.3137 12 46 12Z" fill="#F4AA41"/>
<path d="M34 36C39.5228 36 44 31.5228 44 26C44 20.4772 39.5228 16 34 16C28.4772 16 24 20.4772 24 26C24 31.5228 28.4772 36 34 36Z" fill="white"/>
<path d="M34 36C38.6105 36 42.348 33.9853 42.348 31.5C42.348 29.0147 38.6105 27 34 27C29.3895 27 25.652 29.0147 25.652 31.5C25.652 33.9853 29.3895 36 34 36Z" fill="#D0CFCE"/>
<path d="M52 55V18C51.9947 16.4103 51.3609 14.8873 50.2368 13.7632C49.1127 12.6391 47.5897 12.0053 46 12V61C47.5897 60.9947 49.1127 60.3609 50.2368 59.2368C51.3609 58.1127 51.9947 56.5897 52 55Z" fill="#E27022"/>
<path d="M32 31H36V56H32V31Z" fill="#F1B31C"/>
<path d="M24.754 45.133C24.754 45.2715 24.7083 45.406 24.6241 45.5159C24.5398 45.6257 24.4216 45.7047 24.2879 45.7406C24.1542 45.7764 24.0124 45.7672 23.8845 45.7142C23.7566 45.6613 23.6497 45.5676 23.5804 45.4478C23.5111 45.3279 23.4833 45.1886 23.5013 45.0513C23.5193 44.914 23.5821 44.7865 23.6799 44.6886C23.7777 44.5906 23.9051 44.5277 24.0424 44.5095C24.1796 44.4913 24.319 44.5189 24.439 44.588C24.5347 44.6433 24.6141 44.7227 24.6694 44.8183C24.7247 44.914 24.7539 45.0225 24.754 45.133ZM21.608 45.133C21.6082 44.6913 21.7245 44.2573 21.9453 43.8747C22.1661 43.4921 22.4836 43.1742 22.866 42.953L21.608 40.773C20.8426 41.2147 20.207 41.8502 19.7653 42.6156C19.3236 43.381 19.0914 44.2493 19.092 45.133H21.608ZM25.383 47.313C25.0002 47.5336 24.5662 47.6498 24.1245 47.6498C23.6827 47.6498 23.2487 47.5336 22.866 47.313L21.608 49.493C22.3733 49.9341 23.2411 50.1662 24.1245 50.1662C25.0078 50.1662 25.8756 49.9341 26.641 49.493L25.383 47.313ZM25.383 42.953C25.7653 43.1742 26.0828 43.4921 26.3036 43.8747C26.5244 44.2573 26.6408 44.6913 26.641 45.133H29.157C29.1574 44.2495 28.9251 43.3814 28.4834 42.6162C28.0417 41.851 27.4063 41.2156 26.641 40.774L25.383 42.953Z" fill="black" stroke="black" stroke-linecap="round" stroke-linejoin="round"/>
<path d="M46 12H22C18.6863 12 16 14.6863 16 18V55C16 58.3137 18.6863 61 22 61H46C49.3137 61 52 58.3137 52 55V18C52 14.6863 49.3137 12 46 12Z" stroke="black" stroke-width="2" stroke-linecap="round" stroke-linejoin="round"/>
<path d="M42.348 31.5C41.4383 30.1169 40.1992 28.9816 38.742 28.1959C37.2849 27.4103 35.6554 26.999 34 26.999C32.3445 26.999 30.7151 27.4103 29.2579 28.1959C27.8008 28.9816 26.5617 30.1169 25.652 31.5M29 23L30.797 27.494" stroke="black" stroke-width="2" stroke-linecap="round" stroke-linejoin="round"/>
<path d="M36 35.8C38.4281 35.3044 40.5857 33.9248 42.0544 31.9288C43.5232 29.9328 44.1985 27.4626 43.9494 24.997C43.7003 22.5314 42.5446 20.2461 40.7063 18.5841C38.8681 16.9222 36.4782 16.002 34 16.002C31.5219 16.002 29.132 16.9222 27.2937 18.5841C25.4554 20.2461 24.2997 22.5314 24.0507 24.997C23.8016 27.4626 24.4769 29.9328 25.9456 31.9288C27.4144 33.9248 29.5719 35.3044 32 35.8M32 50.555C31.2375 50.9953 30.6415 51.6749 30.3045 52.4884C29.9675 53.3019 29.9084 54.2038 30.1363 55.0544C30.3642 55.9049 30.8664 56.6565 31.565 57.1925C32.2636 57.7286 33.1195 58.0191 34 58.0191C34.8806 58.0191 35.7365 57.7286 36.4351 57.1925C37.1336 56.6565 37.6358 55.9049 37.8637 55.0544C38.0916 54.2038 38.0325 53.3019 37.6955 52.4884C37.3586 51.6749 36.7626 50.9953 36 50.555" stroke="black" stroke-width="2" stroke-linecap="round" stroke-linejoin="round"/>
<path d="M35 31H33C32.4477 31 32 31.4477 32 32V55C32 55.5523 32.4477 56 33 56H35C35.5523 56 36 55.5523 36 55V32C36 31.4477 35.5523 31 35 31Z" stroke="black" stroke-width="2" stroke-linecap="round" stroke-linejoin="round"/>
</svg>
